<svg width="161px" height="161px" viewBox="-5.6 -5.6 27.20 27.20" fill="none" xmlns="http://www.w3.org/2000/svg" stroke="#667c36" transform="rotate(0)matrix(1, 0, 0, 1, 0, 0)" stroke-width="0.33599999999999997"><g id="SVGRepo_bgCarrier" stroke-width="0" transform="translate(0,0), scale(1)"><path transform="translate(-5.6, -5.6), scale(1.7)" fill="#edf033" d="M9.166.33a2.25 2.25 0 00-2.332 0l-5.25 3.182A2.25 2.25 0 00.5 5.436v5.128a2.25 2.25 0 001.084 1.924l5.25 3.182a2.25 2.25 0 002.332 0l5.25-3.182a2.25 2.25 0 001.084-1.924V5.436a2.25 2.25 0 00-1.084-1.924L9.166.33z" strokewidth="0"></path></g><g id="SVGRepo_tracerCarrier" stroke-linecap="round" stroke-linejoin="round" stroke="#CCCCCC" stroke-width="0.064"></g><g id="SVGRepo_iconCarrier"> <path fill-rule="evenodd" clip-rule="evenodd" d="M16 5.5C16 8.53757 13.5376 11 10.5 11H7V13H5V15L4 16H0V12L5.16351 6.83649C5.0567 6.40863 5 5.96094 5 5.5C5 2.46243 7.46243 0 10.5 0C13.5376 0 16 2.46243 16 5.5ZM13 4C13 4.55228 12.5523 5 12 5C11.4477 5 11 4.55228 11 4C11 3.44772 11.4477 3 12 3C12.5523 3 13 3.44772 13 4Z" fill="#ae782d"></path> </g></svg>